<svg width="34" height="24" viewBox="0 0 34 24" fill="none" xmlns="http://www.w3.org/2000/svg">
<path d="M33.9997 6.87484C34.0383 3.16085 30.5832 0.722901 27.0618 1.50097C26.2671 1.67733 25.4668 1.82257 24.6499 1.91594C21.5535 2.26867 18.5841 1.68771 15.6368 0.888889C14.003 0.442796 12.3307 0.121194 10.6307 0.0226386C8.50025 -0.10704 6.45257 0.328679 4.50424 1.11712C1.54034 2.31535 0.0501158 4.4732 0.0114803 7.49729C-0.0105972 9.07937 0.0059609 10.6563 0.0059609 12.2383V17.4151C0.0059609 17.4773 0.0114803 17.5396 0.0114803 17.6018C0.0721932 19.8167 1.94877 21.9746 4.22827 22.4829C5.47564 22.763 6.65127 22.4985 7.87656 22.2806C10.9398 21.736 13.992 21.8812 16.9835 22.7474C18.9484 23.318 20.9409 23.7901 22.9941 23.9612C25.0583 24.1324 27.0343 23.7174 28.9715 23.095C32.0789 22.0939 33.9831 19.6404 33.9886 16.5436C33.9997 13.3224 33.9666 10.096 33.9997 6.87484ZM7.10385 5.35501C7.85449 5.36538 8.46714 5.9619 8.47265 6.6881C8.48369 7.39355 7.84345 7.99526 7.0873 8.00044C6.27595 8.00563 5.67986 7.41948 5.6909 6.63623C5.70194 5.89966 6.30907 5.34463 7.10385 5.35501ZM7.0873 15.9731C6.29251 15.9782 5.67434 15.3869 5.68538 14.6244C5.69642 13.893 6.29803 13.3587 7.10385 13.3639C7.90968 13.3691 8.50577 13.9656 8.47817 14.7333C8.45058 15.4232 7.83793 15.9731 7.0873 15.9731ZM16.9614 17.3321C13.8099 17.3062 11.3372 14.9149 11.3206 11.8649C11.3041 9.08974 13.992 6.6466 17.0442 6.66216C20.1019 6.68291 22.6353 9.10011 22.674 12.0412C22.7126 14.8526 20.0081 17.3528 16.9614 17.3321ZM26.9128 18.6444C26.1567 18.6496 25.5385 18.0738 25.5219 17.3425C25.5054 16.6059 26.1622 15.9782 26.9349 15.999C27.6966 16.0146 28.2982 16.6059 28.3037 17.3373C28.3092 18.0531 27.6911 18.6341 26.9128 18.6444ZM26.8907 10.6355C26.0628 10.6303 25.4944 10.0701 25.5164 9.27648C25.544 8.55028 26.1787 8.00044 26.957 8.02638C27.7242 8.05231 28.3203 8.64365 28.3092 9.36984C28.2927 10.096 27.6855 10.6407 26.8907 10.6355Z" fill="#403E3B"/>
<path d="M17.0221 9.36466C15.4215 9.35428 14.1962 10.4851 14.1962 11.9738C14.1907 13.4884 15.3663 14.6244 16.9614 14.6348C18.5565 14.6503 19.7873 13.5195 19.7984 12.0308C19.8039 10.5369 18.5952 9.37503 17.0221 9.36466Z" fill="#403E3B"/>
</svg>
