<svg width="24" height="27" viewBox="0 0 24 27" fill="none" xmlns="http://www.w3.org/2000/svg">
<g id="Add Student">
<path d="M11.2575 15.6384C11.9579 15.6424 12.3529 16.5237 11.9935 17.1204C10.4878 19.6207 10.307 23.0248 12.6531 25.9863C12.8427 26.2257 12.7767 26.4842 12.4699 26.4842C8.50004 26.4881 4.5262 26.4764 0.556323 26.4999C0.0304321 26.5038 -0.0684195 26.3783 0.0383402 25.8759C0.532598 23.5369 0.979407 21.1901 1.46971 18.8472C1.82558 17.1557 3.37952 15.7154 5.1035 15.6644C7.1356 15.607 9.17005 15.6264 11.2575 15.6384Z" fill="#F2F2F2"/>
<path d="M18.4682 15.637C15.4632 15.6566 13.0314 18.1212 13.063 21.1077C13.0947 24.1178 15.5304 26.5038 18.5552 26.4842C21.5761 26.4685 24.0079 24.0432 24 21.0527C23.996 18.0505 21.505 15.6134 18.4682 15.637ZM21.2677 21.8808C20.8446 21.8416 20.4097 21.9161 19.9906 21.8651C19.4291 21.7945 19.2946 22.026 19.346 22.5323C19.3895 22.9718 19.3302 23.4231 19.3619 23.8666C19.3895 24.2433 19.2314 24.3179 18.8834 24.3218C17.713 24.3375 17.713 24.3532 17.713 23.1798V23.117C17.713 21.873 17.713 21.873 16.4517 21.873H16.3884C15.2101 21.873 15.2259 21.873 15.2457 20.7074C15.2496 20.362 15.3287 20.1815 15.7083 20.2404C15.7676 20.2482 15.8348 20.2443 15.8981 20.2404C16.4873 20.2011 17.2899 20.4994 17.6063 20.1187C17.9028 19.7616 17.7407 18.9924 17.7012 18.4076C17.6656 17.8935 17.8395 17.7719 18.3338 17.7915C19.354 17.8268 19.354 17.7994 19.354 18.8433C19.354 20.2404 19.354 20.2404 20.7735 20.2404C21.8252 20.2404 21.8015 20.2443 21.8292 21.3275C21.8411 21.7709 21.7185 21.924 21.2677 21.8808Z" fill="#F2F2F2"/>
<path d="M3.11475 4.0631C2.77253 3.9356 2.77287 3.45494 3.11529 3.32794C4.14153 2.94731 5.10689 2.58913 6.07225 2.23095C7.52734 1.68937 8.97849 1.15172 10.4296 0.60229C10.6985 0.500254 10.9318 0.45316 11.2244 0.563045C13.8894 1.56771 16.5584 2.55276 19.2274 3.54565C19.3985 3.61094 19.335 3.80246 19.1634 3.86637C16.5076 4.85572 13.8483 5.84547 11.1928 6.84613C10.9239 6.94817 10.7064 6.89715 10.4652 6.80689C8.0538 5.90373 5.6393 5.00365 3.11475 4.0631Z" fill="#F2F2F2"/>
<path d="M6.48742 8.66709C6.48347 7.63887 6.48347 7.63887 7.45222 7.996C8.4091 8.3492 9.36994 8.68671 10.315 9.06738C10.6945 9.22044 11.0148 9.23614 11.3984 9.08308C12.5016 8.64354 13.6324 8.27071 14.7356 7.82725C15.1943 7.6428 15.2773 7.76053 15.2615 8.204C15.2338 8.87901 15.2813 9.55794 15.0994 10.2212C14.53 12.309 12.5727 13.6629 10.4296 13.451C8.2628 13.2391 6.60209 11.4652 6.48742 9.23614C6.47556 9.04776 6.48742 8.85939 6.48742 8.66709Z" fill="#F2F2F2"/>
</g>
</svg>
