<svg width="26" height="26" viewBox="0 0 26 26" fill="none" xmlns="http://www.w3.org/2000/svg">
<path d="M11.087 20.3337C11.087 20.0355 11.0123 19.913 10.7173 19.8191C7.71648 18.8267 5.78933 16.1436 5.79327 13.0073C5.7972 9.8627 7.71648 7.20003 10.7291 6.20358C11.0319 6.10148 11.0949 5.96672 11.0909 5.68085C11.0791 4.81099 11.087 3.94113 11.087 3.07536C11.087 2.22592 11.0595 1.37648 11.0988 0.527043C11.1224 0.0451497 10.9572 -0.0120241 10.5561 0.061485C3.21719 1.38465 -1.41974 8.79273 0.393342 16.2825C1.60469 21.277 5.76967 25.222 10.619 25.9775C10.9808 26.0347 11.0988 25.953 11.0949 25.5487C11.0713 23.809 11.0752 22.0734 11.087 20.3337Z" fill="#403E3B"/>
<path d="M23.6409 5.42765C22.2998 6.82024 20.9626 8.21691 19.6136 9.60133C19.4484 9.76877 19.5192 9.89537 19.59 10.0587C20.3294 11.7903 20.4159 13.5586 19.8221 15.3514C19.7552 15.5474 19.7552 15.6944 19.9165 15.8578C21.2733 17.2585 22.6223 18.6715 23.9792 20.0845C26.8109 15.7883 26.6378 9.50332 23.6409 5.42765Z" fill="#403E3B"/>
<path d="M17.0493 12.9542C17.0533 10.4589 15.1537 8.47011 12.7546 8.45377C10.3515 8.44152 8.4244 10.4099 8.40867 12.897C8.39294 15.4208 10.3083 17.426 12.731 17.426C15.1301 17.43 17.0415 15.4453 17.0493 12.9542Z" fill="#403E3B"/>
<path d="M17.4269 18.6103C17.1988 18.3693 17.0651 18.402 16.8409 18.5939C16.1762 19.1698 15.4172 19.5741 14.5873 19.8068C14.253 19.9008 14.198 20.06 14.2019 20.3663C14.2176 21.2362 14.2058 22.102 14.2058 22.9718C14.2058 23.858 14.2176 24.7483 14.198 25.6345C14.1901 25.9489 14.2806 26.0388 14.5755 25.9857C16.9943 25.5651 19.1338 24.5318 20.9862 22.8616C21.2025 22.6655 21.2222 22.5553 21.0059 22.3347C19.8063 21.1014 18.6068 19.864 17.4269 18.6103Z" fill="#403E3B"/>
<path d="M14.5165 6.19133C15.2009 6.3751 15.8419 6.68547 16.424 7.10611C16.6049 7.23679 16.7268 7.26129 16.896 7.0816C18.123 5.79111 19.358 4.50879 20.6008 3.23871C20.825 3.01002 20.7109 2.92017 20.5339 2.76907C19.3934 1.82162 18.1348 1.10286 16.7544 0.604636C16.015 0.339186 15.2599 0.159497 14.3946 0.00839511C14.1862 -0.0446948 14.2058 0.163581 14.2058 0.363689C14.2058 2.15649 14.2098 3.95338 14.2019 5.74619C14.2058 5.99122 14.253 6.1219 14.5165 6.19133Z" fill="#403E3B"/>
</svg>
