<svg width="27" height="26" viewBox="0 0 27 26" fill="none" xmlns="http://www.w3.org/2000/svg">
<path d="M1.61652 6.54252C1.60846 7.42919 1.69714 7.51053 2.60413 7.51053C6.23207 7.51053 9.86001 7.51053 13.4879 7.51053C16.8619 7.51053 20.2359 7.5146 23.6139 7.51053C25.5206 7.51053 25.3755 7.72203 25.3997 5.7372C25.4077 5.17591 25.2022 4.89527 24.7063 4.68377C21.1389 3.1748 17.5795 1.64957 14.0241 0.112134C13.6371 -0.0546252 13.3186 -0.0261541 12.9478 0.136537C9.64233 1.56822 6.32881 2.97551 3.02336 4.39499C1.37466 5.1027 1.63668 4.73664 1.61652 6.54252Z" fill="#403E3B"/>
<path d="M18.7485 17.2964C18.7485 15.275 18.426 13.2576 18.434 11.2362C18.4381 10.6749 18.2002 10.4146 17.6359 10.4308C16.9627 10.4471 16.2855 10.4471 15.6123 10.4308C15.0802 10.4186 14.8585 10.6586 14.8464 11.1955C14.7456 15.2547 14.6328 19.3138 14.5118 23.373C14.4957 23.9221 14.7255 24.1539 15.2576 24.1498C16.1444 24.1417 17.0272 24.1539 17.914 24.1458C18.6517 24.1417 18.7605 23.9953 18.7565 23.2265C18.7444 21.2498 18.7485 19.2731 18.7485 17.2964C18.8573 17.2964 18.6436 17.2964 18.7485 17.2964Z" fill="#403E3B"/>
<path d="M6.18773 17.3818C6.19176 17.3818 6.20385 17.3818 6.21191 17.3818C6.21191 15.3401 5.88943 13.2983 5.90152 11.2565C5.90555 10.6586 5.65563 10.4024 5.06306 10.4227C4.43019 10.4431 3.79732 10.4471 3.16444 10.4227C2.588 10.3983 2.31792 10.6139 2.30583 11.228C2.20909 15.2709 2.09622 19.3097 1.97528 23.3486C1.95916 23.9302 2.19699 24.162 2.75731 24.1498C3.61995 24.1335 4.48662 24.1498 5.34927 24.1458C6.1071 24.1417 6.21997 24.0075 6.21594 23.2509C6.20788 21.2946 6.21191 19.3382 6.21191 17.3818C6.19982 17.3818 6.19176 17.3818 6.18773 17.3818Z" fill="#403E3B"/>
<path d="M12.4882 17.3168C12.4882 15.275 12.1416 13.2373 12.1537 11.1955C12.1577 10.6586 11.9279 10.4146 11.3918 10.4268C10.7186 10.4431 10.0414 10.4431 9.36822 10.4268C8.80387 10.4105 8.58216 10.6708 8.56604 11.2321C8.46929 15.2709 8.36046 19.3097 8.23953 23.3486C8.2234 23.9261 8.46123 24.162 9.02558 24.1498C9.88822 24.1336 10.7549 24.1498 11.6175 24.1458C12.3754 24.1417 12.4882 24.0156 12.4882 23.2509C12.4882 21.2742 12.4882 19.2935 12.4882 17.3168C12.5447 17.3168 12.5165 17.3168 12.4882 17.3168Z" fill="#403E3B"/>
<path d="M25.0208 17.3005C25.0208 15.2831 24.6781 13.2617 24.6902 11.2443C24.6942 10.6383 24.4282 10.4064 23.8437 10.4268C23.1907 10.4512 22.5376 10.4431 21.8846 10.4308C21.3606 10.4186 21.1147 10.6505 21.1026 11.1874C21.0018 15.2465 20.893 19.3097 20.7801 23.3689C20.764 23.9058 20.9776 24.158 21.5178 24.1498C22.4248 24.1376 23.3318 24.1336 24.2347 24.1539C24.8434 24.1661 25.0369 23.8895 25.0288 23.2957C25.0087 21.2987 25.0208 19.2975 25.0208 17.3005C25.1336 17.3005 24.9119 17.3005 25.0208 17.3005Z" fill="#403E3B"/>
<path d="M26.5284 24.9104C26.3631 24.8819 26.1938 24.8901 26.0245 24.8901C17.6722 24.8901 9.32388 24.8901 0.971555 24.8901C0.782096 24.8901 0.588606 24.8901 0.407209 24.9307C0.149222 24.9795 0.00410486 25.1829 7.38192e-05 25.431C-0.00395722 25.7076 0.157285 25.9191 0.439458 25.976C0.620854 26.0126 0.818376 25.9964 1.00783 25.9964C5.16384 25.9964 9.31581 25.9964 13.4718 25.9964C17.648 25.9964 21.8241 25.9964 25.9963 25.9964C26.1656 25.9964 26.3349 26.0086 26.5002 25.9882C26.8146 25.9435 27 25.7361 27 25.4269C26.996 25.1463 26.8146 24.9551 26.5284 24.9104Z" fill="#403E3B"/>
<path d="M1.60846 9.39776C1.79389 9.42216 1.98738 9.41403 2.17684 9.41403C9.72698 9.41403 17.2771 9.41403 24.8273 9.41403C24.9764 9.41403 25.1215 9.41403 25.2707 9.40996C25.6294 9.40182 25.831 9.21066 25.827 8.85681C25.8229 8.53549 25.6254 8.35653 25.2989 8.34433C25.1296 8.34026 24.9603 8.34026 24.791 8.34026C21.0381 8.34026 17.2812 8.34026 13.5283 8.34026C9.75117 8.34026 5.97811 8.34026 2.20102 8.34026C2.01156 8.34026 1.82211 8.33619 1.63265 8.35246C1.33032 8.37687 1.17714 8.57617 1.16908 8.86088C1.16505 9.15372 1.31419 9.35708 1.60846 9.39776Z" fill="#403E3B"/>
</svg>
