<svg width="29" height="30" viewBox="0 0 29 30" fill="none" xmlns="http://www.w3.org/2000/svg">
<path d="M28.94 10.8948C28.8821 8.79811 27.835 7.16481 26.0533 6.04699C25.1393 5.47359 24.1327 6.07595 24.1269 7.15902C24.1269 7.42545 24.1385 7.68608 24.1269 7.9525C23.9996 11.2712 22.5823 13.9065 19.8403 15.7599C15.7966 18.4994 10.3241 17.7407 7.20022 14.0803C5.50524 12.0937 4.74741 9.78852 4.85154 7.19377C4.87468 6.64934 4.66643 6.23812 4.19206 5.97169C3.72927 5.71685 3.26069 5.80952 2.84996 6.08174C1.03349 7.29223 0.0384874 8.97766 0.00956283 11.1843C-0.00779194 12.5976 0.00377791 14.0166 0.00377791 15.4298C0.00377791 16.9009 0.00377791 18.372 0.00956283 19.8489C0.00956283 20.1327 0.0211327 20.4165 0.0674121 20.6945C0.651689 23.8743 3.00615 25.8493 6.24571 25.8782C8.39192 25.8956 10.5439 25.8898 12.6959 25.8725C13.1124 25.8667 13.3091 25.9246 13.2802 26.4169C13.2513 26.8339 13.2744 27.1177 12.6959 27.0945C11.643 27.054 10.5844 27.0714 9.53154 27.1235C8.88942 27.1525 8.44976 27.6911 8.45555 28.2877C8.46712 28.9016 8.91256 29.3997 9.53154 29.4808C9.69931 29.5039 9.87286 29.4981 10.0406 29.4981C13.0025 29.4981 15.9586 29.4981 18.9205 29.4981C19.1114 29.4981 19.3023 29.5097 19.4816 29.475C20.0312 29.3649 20.4014 29.0348 20.494 28.4672C20.5807 27.9228 20.332 27.5173 19.875 27.2393C19.6031 27.0772 19.2965 27.0887 18.9957 27.0829C18.0527 27.0772 17.1098 27.083 16.1669 27.0772C15.9933 27.0772 15.7908 27.1409 15.7156 26.8687C15.5305 26.1678 15.733 25.884 16.4561 25.884C18.3246 25.884 20.1874 25.884 22.0559 25.884C22.6575 25.884 23.2592 25.8551 23.8608 25.774C26.5566 25.4149 28.8995 22.9418 28.9515 20.2312C29.0094 17.1268 29.0267 14.0108 28.94 10.8948Z" fill="#403E3B"/>
<path d="M8.71009 9.70743C7.87127 10.2113 7.81342 11.167 8.54232 11.723C9.01669 12.0879 9.5489 12.0647 10.0059 11.7172C10.3935 11.4276 10.6423 11.4855 10.9662 11.8099C11.4348 12.2848 12.0306 12.6207 12.6554 12.8061C13.1645 12.9509 13.286 13.1825 13.2744 13.669C13.2628 14.4683 13.7603 14.978 14.4545 14.9954C15.1545 15.0128 15.6751 14.4625 15.7156 13.669C15.7214 13.5764 15.7272 13.4779 15.7156 13.3852C15.6751 13.1072 15.8082 12.974 16.0627 12.8987C16.8668 12.6497 17.5842 12.25 18.1916 11.6593C18.4172 11.4392 18.6081 11.4739 18.8337 11.6361C19.094 11.8272 19.3717 11.9952 19.6841 11.9489C20.2915 11.9547 20.6791 11.6709 20.8584 11.1264C21.0493 10.5415 20.8353 10.0144 20.1642 9.62634C19.8056 9.41784 19.6494 9.24408 19.7882 8.78653C19.9675 8.21314 20.0023 7.58182 19.8287 6.99106C19.6552 6.40029 19.7651 6.02961 20.3436 5.74002C20.7717 5.52572 20.9626 5.08554 20.9221 4.59324C20.8758 4.08355 20.5287 3.78817 20.0832 3.62021C19.6378 3.44645 19.2213 3.58545 18.8626 3.85188C18.5792 4.05459 18.3767 4.02563 18.1279 3.78238C17.6304 3.28428 17.0577 2.86727 16.3751 2.67614C15.8776 2.53713 15.6636 2.36338 15.6983 1.80736C15.733 1.26872 15.4611 0.828539 14.9289 0.596865C14.4834 0.405735 14.0843 0.509988 13.714 0.79958C13.3149 1.11234 13.2223 1.55252 13.2744 2.02166C13.3149 2.38075 13.1645 2.54292 12.8347 2.60663C12.1926 2.73405 11.6315 3.06998 11.1687 3.51016C10.7348 3.92138 10.4051 4.08355 9.83815 3.70129C9.30593 3.3422 8.58282 3.59125 8.24151 4.10093C7.94069 4.54111 7.99276 5.14925 8.39192 5.55468C8.56546 5.72844 8.77951 5.86165 8.99355 5.97169C9.25387 6.1107 9.32329 6.27866 9.23073 6.56825C9.02247 7.2459 8.98198 7.96409 9.17288 8.63594C9.3175 9.18616 9.17288 9.42942 8.71009 9.70743ZM14.5181 5.97748C15.49 5.99486 16.2883 6.78834 16.2941 7.744C16.2999 8.75178 15.4437 9.60318 14.4603 9.58001C13.4769 9.55684 12.6901 8.74019 12.6901 7.7382C12.6901 6.75938 13.5174 5.96011 14.5181 5.97748Z" fill="#403E3B"/>
</svg>
