<svg width="28" height="28" viewBox="0 0 28 28" fill="none" xmlns="http://www.w3.org/2000/svg">
<path d="M15.1768 8.15024C15.1768 6.20129 15.1739 4.25233 15.1768 2.30049C15.1797 0.801959 15.9765 0.00216551 17.4575 0.00216551C20.2088 -0.000721835 22.9601 -0.000721835 25.7114 0.00216551C27.1895 0.00216551 27.9949 0.819283 27.9978 2.30626C28.0007 6.22439 28.0007 10.1396 27.9978 14.0577C27.9978 15.513 27.1953 16.3185 25.7344 16.3214C22.9658 16.3272 20.1972 16.3272 17.4257 16.3214C15.9592 16.3185 15.1797 15.5274 15.1768 14.052C15.171 12.0857 15.1768 10.1165 15.1768 8.15024Z" fill="#403E3B"/>
<path d="M12.8239 19.8382C12.8239 21.8074 12.8268 23.7737 12.8239 25.7428C12.821 27.198 12.0127 27.9978 10.5548 27.9978C7.78616 28.0007 5.01755 28.0007 2.24606 27.9978C0.840108 27.9949 0.00577394 27.1634 0.00577394 25.7601C0 21.8045 0 17.8517 0.00288697 13.8989C0.00288697 12.5101 0.814125 11.6844 2.19987 11.6786C5.02333 11.6699 7.84678 11.6699 10.6702 11.6786C12.0011 11.6815 12.8124 12.4957 12.821 13.8268C12.8326 15.8306 12.8239 17.8344 12.8239 19.8382Z" fill="#403E3B"/>
<path d="M6.39464 9.32539C4.99157 9.32539 3.5885 9.33117 2.18544 9.3225C0.834334 9.31384 0.00577394 8.48518 0.00288697 7.14545C0 5.48812 -0.00288697 3.83078 0.00577394 2.17345C0.00866091 0.865481 0.854543 0.00794019 2.15079 0.00505285C4.99157 -0.000721835 7.83524 -0.000721835 10.676 0.00505285C11.9636 0.00794019 12.8095 0.830833 12.821 2.10704C12.8355 3.81923 12.8384 5.53143 12.821 7.24362C12.8095 8.49673 11.9809 9.31096 10.7135 9.3225C9.27295 9.33694 7.83524 9.32539 6.39464 9.32539Z" fill="#403E3B"/>
<path d="M21.5397 27.9978C20.1366 27.9978 18.7335 28.0036 17.3305 27.9949C16.0256 27.9892 15.1855 27.1576 15.1768 25.8439C15.1653 24.1692 15.1653 22.4917 15.1768 20.817C15.1855 19.4946 16.0025 18.6804 17.3334 18.6775C20.1741 18.6688 23.0178 18.6688 25.8586 18.6775C27.1664 18.6833 27.9892 19.5293 27.9921 20.8459C27.9978 22.5032 27.9978 24.1606 27.9921 25.8179C27.9863 27.149 27.1375 27.9892 25.798 27.9949C24.3805 28.0036 22.9601 27.9978 21.5397 27.9978Z" fill="#403E3B"/>
</svg>
