<svg width="562" height="175" viewBox="0 0 562 175" fill="none" xmlns="http://www.w3.org/2000/svg">
<path d="M1 173.5C1 173.5 14.5 57.4999 83.5 57.4999C157.5 57.4999 178 96.9997 225.5 96.9997C273 96.9997 268 20.4997 330 20.4998C409.5 20.4998 363.358 123.406 437.5 96.9997C474 84 512.036 74.0557 536.5 96.9997C550.603 110.226 561 173.5 561 173.5" stroke="#767676" stroke-width="2" stroke-linecap="round"/>
<circle cx="74" cy="57.5" r="6.5" fill="#403E3B" stroke="#F2F2F2" stroke-width="3"/>
<circle cx="227" cy="96.5" r="6.5" fill="#403E3B" stroke="#F2F2F2" stroke-width="3"/>
<g filter="url(#filter0_d_158_58)">
<circle cx="328" cy="20.5" r="8" fill="#403E3B"/>
<circle cx="328" cy="20.5" r="6.5" stroke="#F2F2F2" stroke-width="3"/>
</g>
<circle cx="410" cy="98.5" r="6.5" fill="#403E3B" stroke="#F2F2F2" stroke-width="3"/>
<circle cx="538" cy="98.5" r="6.5" fill="#403E3B" stroke="#F2F2F2" stroke-width="3"/>
<defs>
<filter id="filter0_d_158_58" x="308" y="0.5" width="40" height="40" filterUnits="userSpaceOnUse" color-interpolation-filters="sRGB">
<feFlood flood-opacity="0" result="BackgroundImageFix"/>
<feColorMatrix in="SourceAlpha" type="matrix" values="0 0 0 0 0 0 0 0 0 0 0 0 0 0 0 0 0 0 127 0" result="hardAlpha"/>
<feOffset/>
<feGaussianBlur stdDeviation="6"/>
<feComposite in2="hardAlpha" operator="out"/>
<feColorMatrix type="matrix" values="0 0 0 0 0.25098 0 0 0 0 0.243137 0 0 0 0 0.231373 0 0 0 0.2 0"/>
<feBlend mode="normal" in2="BackgroundImageFix" result="effect1_dropShadow_158_58"/>
<feBlend mode="normal" in="SourceGraphic" in2="effect1_dropShadow_158_58" result="shape"/>
</filter>
</defs>
</svg>
