<svg width="219" height="6" viewBox="0 0 219 6" fill="none" xmlns="http://www.w3.org/2000/svg">
<path id="Vector 6" opacity="0.1" d="M0.333333 3C0.333333 4.47276 1.52724 5.66667 3 5.66667C4.47276 5.66667 5.66667 4.47276 5.66667 3C5.66667 1.52724 4.47276 0.333333 3 0.333333C1.52724 0.333333 0.333333 1.52724 0.333333 3ZM212.833 3C212.833 4.47276 214.027 5.66667 215.5 5.66667C216.973 5.66667 218.167 4.47276 218.167 3C218.167 1.52724 216.973 0.333333 215.5 0.333333C214.027 0.333333 212.833 1.52724 212.833 3ZM3 3.5H215.5V2.5H3V3.5Z" fill="#403E3B"/>
</svg>
