<svg width="25" height="27" viewBox="0 0 25 27" fill="none" xmlns="http://www.w3.org/2000/svg">
<g id="Logout Icon">
<path d="M19.2694 4.24167C18.3868 3.66404 17.3439 3.79712 16.8023 4.55598C16.2092 5.38562 16.4241 6.39648 17.3467 7.01941C17.7593 7.2969 18.1691 7.57156 18.5301 7.91135C21.1748 10.3946 22.1977 13.4215 21.2665 16.91C20.0516 21.4518 15.894 24.0964 11.172 23.5188C6.26083 22.9157 2.60755 17.9803 3.51012 13.1752C4.00582 10.5333 5.4041 8.48615 7.6591 6.9911C8.56741 6.38798 8.77084 5.43092 8.21784 4.6211C7.67056 3.81694 6.61613 3.65838 5.72501 4.23601C3.37832 5.75938 1.7193 7.80941 0.742226 10.4258C-1.04287 15.1997 0.470021 20.8571 4.44135 24.0936C8.61898 27.4999 14.278 27.9671 18.9169 25.2035C22.8883 22.8364 24.7966 19.2517 25 15.3413C24.9284 10.2898 22.9312 6.63149 19.2694 4.24167Z" fill="#403E3B"/>
<path d="M10.788 7.23461C10.7966 8.2483 11.4843 8.96751 12.4499 8.9845C13.4499 9.00149 14.1892 8.29077 14.1978 7.26293C14.2121 5.41959 14.2121 3.57626 14.1978 1.73293C14.192 0.733401 13.4614 0.00852731 12.5072 3.26963e-05C11.5244 -0.00563038 10.8024 0.724906 10.7909 1.75842C10.7823 2.67017 10.788 3.58476 10.788 4.49651C10.7852 5.40827 10.7794 6.32002 10.788 7.23461Z" fill="#403E3B"/>
</g>
</svg>
