<svg width="19" height="23" viewBox="0 0 19 23" fill="none" xmlns="http://www.w3.org/2000/svg">
<path d="M18.937 13.6613C18.6017 11.6663 18.1954 9.68705 17.8175 7.69835C17.4112 5.57728 15.9168 4.09285 13.9365 3.87224C13.695 3.84387 13.6779 3.74302 13.7262 3.53186C14.1581 1.67868 12.7261 -0.0673383 11.1038 0.00199826C10.0412 0.0492732 8.97292 0.0398182 7.90747 0.00514992C6.12605 -0.0547316 4.81342 1.82996 5.26517 3.50349C5.33904 3.78714 5.25096 3.85333 4.9981 3.87539C3.15985 4.02982 1.55174 5.62456 1.18523 7.62271C0.815871 9.62717 0.449357 11.6316 0.0714795 13.6329C-0.346175 15.8296 1.11704 18.0736 3.13996 18.1556C5.19982 18.2407 7.26537 18.1745 9.33091 18.1745V18.2091C11.3538 18.2091 13.3739 18.1934 15.3997 18.2123C17.6925 18.2312 19.3489 16.1227 18.937 13.6613ZM11.1436 3.84702C10.5896 3.87224 10.0412 3.85333 9.48718 3.85017C8.92178 3.85017 8.35354 3.86908 7.79383 3.84387C7.33924 3.82496 7.02386 3.53501 6.93011 3.10953C6.83919 2.71558 7.00966 2.2775 7.32503 2.06949C7.50687 1.94972 7.71143 1.93081 7.91032 1.93081C8.95871 1.92136 10.01 1.92136 11.0584 1.93081C11.4021 1.93081 11.7289 2.00961 11.9278 2.37835C12.2971 3.0528 11.9022 3.81236 11.1436 3.84702Z" fill="#403E3B"/>
<path d="M12.4363 20.1348C11.4533 20.1506 10.4702 20.1411 9.48717 20.1411C8.48992 20.1411 7.4955 20.1474 6.49825 20.1348C6.23686 20.1316 6.16867 20.1884 6.25959 20.4878C6.70281 21.9249 8.0268 22.9776 9.45024 22.9997C10.8652 23.0217 12.2374 21.9659 12.7091 20.5256C12.8227 20.1758 12.7233 20.1285 12.4363 20.1348Z" fill="#403E3B"/>
</svg>
