<svg width="14" height="14" viewBox="0 0 14 14" fill="none" xmlns="http://www.w3.org/2000/svg">
<path id="Vector" fill-rule="evenodd" clip-rule="evenodd" d="M7 14C3.7002 14 2.05022 14 1.02511 12.9749C-4.63592e-07 11.9498 0 10.2999 0 7.00002C0 3.70018 -4.63592e-07 2.05026 1.02511 1.02513C2.05022 -1.15898e-07 3.7002 0 7 0C10.2998 0 11.9498 -1.15898e-07 12.9749 1.02513C14 2.05026 14 3.70018 14 7.00002C14 10.2999 14 11.9498 12.9749 12.9749C11.9498 14 10.2998 14 7 14ZM8.16667 3.8889C8.16667 3.24457 7.64431 2.72223 7 2.72223C6.35569 2.72223 5.83333 3.24457 5.83333 3.8889V5.83335H3.88889C3.24458 5.83335 2.72222 6.35569 2.72222 7.00002C2.72222 7.64434 3.24458 8.16669 3.88889 8.16669H5.83333V10.1111C5.83333 10.7555 6.35569 11.2778 7 11.2778C7.64431 11.2778 8.16667 10.7555 8.16667 10.1111V8.16669H10.1111C10.7554 8.16669 11.2778 7.64434 11.2778 7.00002C11.2778 6.35569 10.7554 5.83335 10.1111 5.83335H8.16667V3.8889Z" fill="#A5A6A4"/>
</svg>
