<svg width="24" height="28" viewBox="0 0 24 28" fill="none" xmlns="http://www.w3.org/2000/svg">
<path d="M23.9714 12.2224C23.9767 11.7586 23.7758 11.6556 23.3317 11.6607C20.81 11.6814 18.2829 11.671 15.7612 11.671C13.5249 11.671 12.0024 10.1871 12.0024 7.99201C11.9971 5.51355 11.9918 3.0351 12.013 0.556641C12.0182 0.123813 11.8861 -0.00500527 11.442 0.000147448C9.70268 0.025911 7.96337 0.0310637 6.22406 0.00530016C2.70843 -0.0565324 -0.00891299 2.6641 0.0122337 5.91546C0.0333803 9.2132 0.022807 12.5109 0.006947 15.8087C0.006947 16.2209 0.154973 16.3446 0.562046 16.3343C1.79384 16.3136 3.03092 16.3136 4.26271 16.3343C4.65392 16.3394 4.87596 16.2003 5.07686 15.8911C5.56323 15.1388 6.08132 14.402 6.58884 13.66C7.39241 12.4749 8.38102 12.5212 9.03656 13.7888C9.75026 15.1697 10.4587 16.5507 11.1724 17.9367C11.5424 18.6581 11.5424 18.6581 11.9918 18.014C12.1927 17.7306 12.4095 17.4524 12.5786 17.1484C12.9275 16.5352 13.4562 16.3136 14.1541 16.3239C15.6872 16.3446 17.2203 16.3291 18.7534 16.3343C18.9755 16.3343 19.2028 16.3549 19.4196 16.3961C19.9588 16.4991 20.2654 16.8341 20.3236 17.3648C20.4135 18.1429 19.8954 18.6633 18.9808 18.6736C17.6327 18.689 16.2899 18.689 14.9418 18.6684C14.5664 18.6633 14.3285 18.7663 14.1223 19.0858C13.5884 19.9205 13.0227 20.7347 12.4465 21.5385C11.8279 22.4042 10.8076 22.3475 10.2789 21.4251C10.0093 20.9511 9.7767 20.4513 9.52294 19.9618C8.91497 18.7818 8.30701 17.6018 7.67789 16.3858C7.21795 16.8753 6.90604 17.3906 6.58355 17.8955C6.21877 18.4726 5.71125 18.6839 5.03456 18.6787C3.55958 18.6581 2.07932 18.689 0.60434 18.6633C0.16026 18.6581 -0.0194863 18.7612 0.00166034 19.2352C0.0439536 20.0339 0.00166034 20.8377 0.0175203 21.6416C0.0280936 22.2599 0.0280937 22.8834 0.19198 23.4862C0.969119 26.3151 3.20009 27.9897 6.21877 27.9948C10.0675 28.0052 13.9214 27.9948 17.7701 28C18.3569 28 18.9226 27.9176 19.4883 27.7887C21.7668 27.2838 23.7546 25.0887 23.8868 22.8215C24.093 19.2919 23.9502 15.7571 23.9714 12.2224Z" fill="#403E3B"/>
<path d="M15.7982 9.32141C16.956 9.33171 18.1138 9.32141 19.2768 9.32141C20.4928 9.32141 21.7087 9.3111 22.9193 9.32656C23.3423 9.33171 23.3899 9.22351 23.2207 8.86282C22.8665 8.13113 22.47 7.43036 21.8884 6.85326C20.3765 5.34351 18.838 3.84923 17.3102 2.34979C16.5912 1.64386 15.7453 1.11313 14.8255 0.695764C14.5558 0.572099 14.3708 0.551488 14.3708 0.937942C14.3814 3.30819 14.3602 5.67329 14.3972 8.04354C14.4131 8.94526 14.873 9.3111 15.7982 9.32141Z" fill="#403E3B"/>
</svg>
