<svg width="24" height="32" viewBox="0 0 24 32" fill="none" xmlns="http://www.w3.org/2000/svg">
<path d="M9.99505 15.976C10.056 15.976 10.1524 15.981 10.2844 15.981C10.4164 15.9861 10.5179 15.9912 10.5839 15.9912C11.7311 15.9912 12.5839 15.8388 13.1524 15.5342C13.4062 15.392 13.6397 15.2092 13.8529 14.9857C14.0915 14.7369 14.2082 14.5236 14.2082 14.3459C14.2082 13.7264 13.858 13.1424 13.1473 12.6041C12.4976 12.1115 11.8174 11.8271 11.1016 11.751L10.1067 11.6697L10.1778 12.4873C10.2082 12.8174 10.2235 13.0865 10.2235 13.2998C10.2235 13.6553 10.193 14.1021 10.1372 14.6353L9.99505 15.976Z" fill="#403E3B"/>
<path d="M24 9.95323C24 9.45557 23.8477 9.30831 23.3604 9.31339C21.4467 9.3337 19.5381 9.31339 17.6244 9.32354C16.7818 9.32862 16.0305 9.14073 15.4112 8.51104C14.8122 7.90167 14.6549 7.15011 14.6549 6.33761C14.6549 4.40285 14.6498 2.4681 14.665 0.533337C14.6701 0.132166 14.5533 -0.00494277 14.1371 0.000135335C11.6396 0.0204478 9.14727 -0.0252552 6.65489 0.0255259C5.13206 0.0610726 3.69551 0.467321 2.5077 1.48802C0.79197 2.95559 -0.0100571 4.83957 9.51525e-05 7.08917C0.0102474 10.0446 9.51525e-05 13.0001 9.51525e-05 15.9505V24.8727C9.51525e-05 25.5836 0.0863892 26.2844 0.243749 26.97C0.913797 29.8543 3.92901 32.0887 7.01022 31.9973C10.3351 31.8957 13.665 31.9008 16.9899 31.9922C20.5736 32.0887 24.0051 29.25 23.9949 25.0504C23.9797 20.018 23.9848 14.9856 24 9.95323ZM8.7361 15.1024C8.82747 14.2849 8.86808 13.6755 8.86808 13.2642C8.86808 13.0356 8.84778 12.6954 8.80717 12.2485C8.76656 11.8017 8.74118 11.4614 8.74118 11.2329C8.74118 10.979 8.81224 10.7556 8.95945 10.5626C9.12696 10.3239 9.36554 10.2173 9.66503 10.2376L11.2843 10.3646C11.8985 10.4407 12.4163 10.5931 12.8376 10.8165C14.6549 11.7813 15.5635 12.9595 15.5635 14.3458C15.5635 15.0313 15.2538 15.6306 14.6346 16.1587C14.1371 16.5802 13.5178 16.9001 12.7716 17.1184C14.1676 17.87 15.2082 18.6571 15.8985 19.4899C16.0153 19.6321 16.0711 19.7844 16.0711 19.9469C16.0711 20.1348 16.0051 20.2973 15.8681 20.4344C15.731 20.5766 15.5736 20.6426 15.3858 20.6426C15.2183 20.6426 15.0559 20.5716 14.9087 20.4294C13.4264 18.9618 11.7767 17.9766 9.95945 17.4688L10.0153 18.7891L10.0457 20.1145C10.0457 20.3126 9.98483 20.4751 9.85792 20.6071C9.72595 20.7391 9.56858 20.8051 9.37569 20.8051C9.1828 20.8051 9.02036 20.7391 8.89346 20.6071C8.76656 20.4751 8.70057 20.3126 8.70057 20.1145C8.70057 19.7591 8.68534 19.2309 8.64981 18.5302C8.61935 17.8294 8.59905 17.3012 8.59905 16.9458C8.59905 16.5345 8.64473 15.92 8.7361 15.1024ZM11.5178 26.3352C10.8122 27.0665 10.0965 27.7875 9.36554 28.4985C8.79194 29.0621 8.07113 29.2856 7.27418 29.2907C5.80718 29.2703 4.96454 28.275 4.17267 27.2543C3.85795 26.8481 4.05592 26.0711 4.45185 25.7106C4.89348 25.3094 5.39601 25.1977 5.93916 25.4922C6.10159 25.5786 6.25895 25.6852 6.39601 25.8122C7.3757 26.7313 7.3757 26.7364 8.34524 25.7563C8.77163 25.3297 9.18788 24.893 9.62442 24.4817C10.3046 23.8317 11.1371 23.7809 11.6803 24.3293C12.1828 24.8422 12.127 25.7004 11.5178 26.3352ZM18.8224 27.9348C17.8173 28.0516 16.7919 28.0668 15.7868 27.9297C15.066 27.8282 14.6853 27.3051 14.7005 26.6399C14.7208 25.929 15.1422 25.4618 15.8782 25.3348C15.9391 25.3247 16 25.3145 16.0609 25.3145C16.4975 25.3094 16.929 25.3094 17.3655 25.3094V25.3297C17.8224 25.3297 18.2792 25.2891 18.731 25.3399C19.4924 25.4262 19.9442 25.9493 19.9493 26.6704C19.9594 27.3051 19.5279 27.8536 18.8224 27.9348Z" fill="#403E3B"/>
<path d="M17.6803 6.67794C19.4874 6.67794 21.2894 6.67794 23.0965 6.67794C23.462 6.67794 23.5128 6.51037 23.3859 6.2006C23.127 5.58107 22.8072 4.99709 22.3402 4.51975C21.4315 3.5803 20.4874 2.67639 19.5635 1.75726C18.9646 1.16312 18.2387 0.777181 17.3351 0.436948C17.3351 2.45803 17.3351 4.40295 17.3351 6.35294C17.3351 6.59161 17.4569 6.67794 17.6803 6.67794Z" fill="#403E3B"/>
</svg>
