<svg width="21" height="23" viewBox="0 0 21 23" fill="none" xmlns="http://www.w3.org/2000/svg">
<g id="Sent">
<path d="M3.2931 17.9374C3.12648 17.5262 3.04199 17.061 3.04199 16.5779C3.03964 15.7683 3.01852 14.9588 3.04903 14.1519C3.0725 13.5633 2.89179 13.1162 2.50222 12.723C2.04928 12.2681 1.61277 11.7901 1.19973 11.2915C0.0920259 9.95773 -0.269386 8.3875 0.202327 6.66822C0.697508 4.8667 1.84276 3.73336 3.53717 3.34016C8.19563 2.25565 12.8588 1.1917 17.5196 0.114896C18.1884 -0.0392994 18.8408 -0.0804183 19.4346 0.261383C14.0533 6.1568 8.67203 12.0497 3.2931 17.9374Z" fill="#403E3B"/>
<path d="M20.7722 1.72877C20.9693 2.22991 21.0655 2.78245 20.9505 3.38124C19.9226 8.73183 18.9276 14.0876 17.8645 19.4279C17.5289 21.1163 16.4728 22.2317 14.9779 22.7482C13.4196 23.2879 11.9739 22.9615 10.7418 21.7537C10.2138 21.2345 9.72801 20.664 9.23282 20.1063C8.95825 19.7954 8.64142 19.6669 8.24481 19.6592C7.24975 19.6412 6.25235 19.7414 5.2573 19.5975C5.02496 19.5641 4.8067 19.4844 4.63539 19.3996C10.0026 13.5196 15.3792 7.63447 20.7722 1.72877Z" fill="#403E3B"/>
</g>
</svg>
