<svg width="21" height="23" viewBox="0 0 21 23" fill="none" xmlns="http://www.w3.org/2000/svg">
<path id="Setting" d="M19.4901 13.3133C19.1895 13.1407 19.0959 12.968 19.1501 12.6445C19.2856 11.8564 19.261 11.061 19.1427 10.2729C19.1058 10.0102 19.1895 9.87887 19.4187 9.74996C20.4214 9.18566 20.9412 8.3246 20.9782 7.19356C20.9831 6.61223 20.8303 6.08441 20.4978 5.62227C19.5148 4.25772 18.0168 3.93665 16.4968 4.77338C16.2701 4.89743 16.1272 4.90472 15.9178 4.73446C15.2699 4.20907 14.5529 3.78584 13.7572 3.51342C13.4812 3.41856 13.4073 3.27748 13.4049 2.99533C13.3975 1.92996 13.0181 1.0227 12.0572 0.453527C10.0223 -0.750485 7.64482 0.567848 7.59308 2.93452C7.58569 3.27019 7.50439 3.43559 7.16933 3.54018C6.54602 3.73476 5.94735 4.03638 5.46201 4.4596C4.99638 4.86581 4.649 4.8731 4.10207 4.59095C2.70024 3.86854 0.877129 4.58852 0.268604 6.03576C-0.330067 7.46112 0.155275 8.88161 1.56203 9.7378C1.80839 9.88617 1.89462 10.0248 1.85028 10.2997C1.72709 11.0902 1.71478 11.8831 1.84781 12.6712C1.89955 12.9801 1.79854 13.1431 1.52015 13.3036C0.384396 13.9604 -0.199492 15.2106 0.0616562 16.3416C0.532216 18.3726 2.58445 19.2896 4.44205 18.268C4.7574 18.0929 4.92493 18.1416 5.1713 18.3459C5.75765 18.8275 6.41545 19.2069 7.13237 19.4623C7.48714 19.5912 7.58569 19.7639 7.59554 20.1312C7.64728 21.9822 9.18214 23.2519 10.9658 22.9576C12.4416 22.7144 13.3852 21.6101 13.4024 20.0534C13.4049 19.7274 13.5182 19.5961 13.8114 19.4866C14.5529 19.2142 15.2428 18.8299 15.8488 18.324C16.0903 18.1221 16.2676 18.0807 16.5436 18.2607C17.1373 18.6451 17.805 18.7764 18.5022 18.6669C19.7685 18.4675 20.7121 17.5335 20.956 16.2711C21.1703 15.1595 20.5889 13.9458 19.4901 13.3133ZM10.478 15.32C8.11538 15.2981 6.61008 13.632 6.63225 11.4867C6.65935 9.15403 8.3445 7.77976 10.5174 7.66057C12.8407 7.81624 14.3829 9.34133 14.3632 11.5256C14.3411 13.8217 12.6929 15.3419 10.478 15.32Z" fill="#403E3B"/>
</svg>
