<svg width="26" height="32" viewBox="0 0 26 32" fill="none" xmlns="http://www.w3.org/2000/svg">
<path d="M23.0699 25.3331C21.7601 25.2532 20.7147 24.2352 20.6013 22.9354C20.5132 21.909 20.5006 20.8742 20.6097 19.8478C20.7315 18.7162 21.4158 18.0053 22.4612 17.593C22.8264 17.45 23.3764 17.673 23.5443 17.3154C23.708 16.9663 23.5863 16.4825 23.5863 16.0576C23.5863 15.9567 23.5863 15.8557 23.5863 15.7548C23.5737 14.6821 23.0699 14.3245 22.0707 14.6989C19.514 15.658 16.9573 16.6381 14.3922 17.5762C13.9933 17.7234 13.8968 17.9212 13.8968 18.3208C13.9094 22.5232 13.9052 26.7255 13.9094 30.9279C13.9094 31.1046 13.8632 31.2897 13.9807 31.4832C14.1277 31.4327 14.2788 31.3906 14.4258 31.3317C16.8523 30.4231 19.2873 29.5271 21.7097 28.6017C23.75 27.8192 23.5737 28.1978 23.5989 25.8674C23.6031 25.4425 23.4729 25.3584 23.0699 25.3331Z" fill="#403E3B"/>
<path d="M11.7767 17.6519C9.08561 16.6466 6.39875 15.6244 3.70348 14.6274C3.01498 14.3708 2.4734 14.7326 2.43142 15.4561C2.39784 16.0198 2.43562 16.5877 2.41463 17.1513C2.40203 17.4416 2.54058 17.4584 2.77148 17.4795C4.43398 17.6267 5.40377 18.6657 5.44155 20.3273C5.45414 21.034 5.45414 21.7407 5.44155 22.4474C5.41636 24.1511 4.46756 25.1817 2.75888 25.3416C2.50699 25.3668 2.40203 25.4173 2.41463 25.6865C2.43562 26.1703 2.42302 26.654 2.41883 27.142C2.41883 27.672 2.65813 27.9917 3.16611 28.181C4.99654 28.8499 6.81857 29.5439 8.6448 30.2296C9.76992 30.6545 10.895 31.0793 12.0202 31.5C12.058 31.4243 12.0873 31.3864 12.0873 31.3528C12.0915 26.9274 12.0915 22.5021 12.1041 18.081C12.0999 17.8328 11.9866 17.7319 11.7767 17.6519Z" fill="#403E3B"/>
<path d="M13.1579 10.8036C15.9455 10.7447 18.221 8.34276 18.137 5.54117C18.0488 2.63863 15.7188 0.430176 12.8136 0.501688C10.0554 0.5732 7.80095 2.94992 7.86393 5.73468C7.9311 8.63301 10.2611 10.8625 13.1579 10.8036Z" fill="#403E3B"/>
<path d="M20.0598 13.5169C19.1026 12.6545 18.095 12.053 16.9993 11.5818C16.7642 11.4809 16.6172 11.6071 16.4451 11.6996C14.1445 12.9448 11.8396 12.9448 9.54322 11.6912C9.39208 11.6071 9.26194 11.4767 9.04783 11.565C7.9353 12.0403 6.89833 12.6335 5.95793 13.5169C7.6834 14.1647 9.3585 14.6863 10.937 15.4266C12.3728 16.0997 13.6575 16.0787 15.0891 15.4224C16.676 14.6947 18.3511 14.1647 20.0598 13.5169Z" fill="#403E3B"/>
<path d="M3.61112 22.6367C3.64051 22.2329 3.61532 21.8291 3.61532 21.4252C3.61532 21.4252 3.61532 21.4252 3.61952 21.4252C3.61952 21.0214 3.62792 20.6176 3.61532 20.2137C3.60273 19.8183 3.4348 19.4692 3.04436 19.3724C1.86046 19.0738 0.357498 19.4271 0.0468289 21.0088C-0.251245 22.5484 0.903267 23.6379 2.66652 23.5327C3.24168 23.4991 3.57334 23.2004 3.61112 22.6367Z" fill="#403E3B"/>
<path d="M25.274 19.8141C24.6065 19.2294 23.8046 19.1915 22.9943 19.3556C22.6081 19.4355 22.4024 19.7678 22.3856 20.1675C22.3688 20.5713 22.3814 20.9751 22.3814 21.379H22.3772C22.3772 21.7828 22.3688 22.1866 22.3814 22.5905C22.3898 22.9859 22.5619 23.2845 22.9356 23.4528C24.0859 23.966 25.6896 23.1415 25.9457 21.8922C26.1094 21.0845 25.9079 20.3694 25.274 19.8141Z" fill="#403E3B"/>
</svg>
