<svg width="27" height="30" viewBox="0 0 27 30" fill="none" xmlns="http://www.w3.org/2000/svg">
<path d="M13.4919 13.6338C17.2151 13.6392 20.2422 10.584 20.2422 6.82492C20.2422 3.06055 17.2256 0.00533893 13.5077 6.96841e-06C9.78457 -0.00532499 6.75751 3.04989 6.75751 6.80892C6.75224 10.5733 9.77402 13.6338 13.4919 13.6338Z" fill="#403E3B"/>
<path d="M8.8986 25.9507C8.13393 25.2255 7.99681 24.5164 8.34487 23.5246C9.32576 20.7307 10.217 17.8994 11.161 15.0361C10.9659 15.0201 10.834 15.0041 10.6969 15.0041C6.47274 14.9828 2.51225 17.7128 0.824693 21.7437C-0.0718216 23.8819 -0.00853816 26.116 0.00728269 28.3607C0.0178299 29.5071 0.508276 29.9976 1.6632 29.9976C4.24727 30.003 6.83134 29.9976 9.41542 29.9976C10.5281 29.9976 11.6409 29.9976 12.9118 29.9976C11.5038 28.5687 10.2381 27.2197 8.8986 25.9507Z" fill="#403E3B"/>
<path d="M26.4914 22.6235C25.0359 17.9901 20.3371 14.6096 15.844 15.0628C16.7721 17.8887 17.6581 20.72 18.6495 23.5086C19.0187 24.5484 18.8288 25.2628 18.0483 25.9987C16.7246 27.2463 15.4695 28.5687 14.0562 29.9976C14.4886 29.9976 14.7259 29.9976 14.9685 29.9976C18.5651 29.9976 22.1565 30.0083 25.7531 29.9763C26.4492 29.971 26.9502 29.4804 26.966 28.7819C27.0029 26.7238 27.1242 24.6497 26.4914 22.6235Z" fill="#403E3B"/>
<path d="M15.7068 24.479C15.9072 24.3031 16.0074 24.1378 15.8967 23.8285C15.1109 21.5091 14.3568 19.1844 13.5921 16.8597C13.5341 16.8597 13.4708 16.8597 13.4128 16.865C12.6745 19.0831 11.9362 21.2959 11.2032 23.514C11.1663 23.6206 11.161 23.7432 11.1082 23.8392C10.9342 24.1325 11.1082 24.3084 11.2981 24.4897C12.0206 25.1989 12.7431 25.908 13.4603 26.6172C14.341 26.0413 14.9369 25.1669 15.7068 24.479Z" fill="#403E3B"/>
</svg>
