<svg width="27" height="30" viewBox="0 0 27 30" fill="none" xmlns="http://www.w3.org/2000/svg">
<g id="Vector">
<path d="M22.9036 14.4609C21.779 12.5357 20.148 10.9651 18.7785 9.20892C18.5608 8.9292 18.3356 8.83047 17.9864 8.83346C16.3327 8.84991 14.679 8.84094 13.0254 8.84094C11.3702 8.84094 9.71649 8.84842 8.06282 8.83496C7.73782 8.83196 7.52318 8.9262 7.31458 9.182C6.3653 10.3503 5.40242 11.5096 4.42442 12.6539C2.59389 14.796 1.62798 17.2537 1.52217 20.0659C1.3831 23.7592 3.30887 27.0666 6.67971 28.6133C10.4647 30.35 14.3677 30.3949 18.2827 29.086C20.5168 28.3395 22.3443 26.9888 23.4281 24.8736C25.245 21.3269 24.8656 17.8161 22.9036 14.4609ZM16.6683 21.0981C16.2133 22.5446 15.2096 23.4256 13.7539 23.837C13.2581 23.9776 12.7639 23.997 12.2635 23.8804C11.5773 23.7203 11.1283 23.1653 11.1238 22.4638C11.1192 21.5722 11.1223 20.6807 11.1223 19.7892V19.5244C10.8593 19.5244 10.6189 19.5379 10.3831 19.5184C10.2758 19.5094 10.1518 19.4601 10.0763 19.3868C9.82835 19.1549 9.6001 18.9021 9.32499 18.6179H11.1253V17.2627C11.1253 17.152 11.1268 17.0398 11.1253 16.9291C11.1223 16.3547 10.6779 16.0405 10.1186 16.2171C10.0989 16.223 10.0763 16.2275 10.0309 16.2395C9.94021 16.048 9.83893 15.858 9.76486 15.6576C9.74068 15.5888 9.76335 15.4826 9.80114 15.4123C10.1669 14.7182 11.346 14.6928 11.7783 15.3689C12.0277 15.7593 12.0912 16.1991 12.0942 16.6494C12.0972 17.2956 12.0942 17.9403 12.0942 18.5745C12.1229 18.594 12.1365 18.6119 12.1471 18.6104C12.5462 18.5356 12.8032 18.7466 13.042 19.0248C13.1765 19.1819 13.3504 19.306 13.506 19.4451C13.4955 19.4676 13.4864 19.49 13.4758 19.5109H12.1078C12.1033 19.6231 12.0957 19.7009 12.0957 19.7802C12.0942 20.4937 12.1199 21.2073 12.0882 21.9193C12.0504 22.7674 12.6807 23.0232 13.3337 22.8692C13.636 22.7989 13.9338 22.6268 14.1817 22.4354C14.7365 22.0075 15.1703 21.481 15.2852 20.76C15.2912 20.7241 15.2912 20.6867 15.2927 20.6493C15.0615 20.6254 14.8498 20.6209 14.6473 20.5805C14.2785 20.5042 14.0079 20.2798 13.9308 19.9193C13.8688 19.6276 13.8341 19.306 13.8945 19.0218C14.026 18.3965 14.6503 18.0809 15.3683 18.2425C16.1241 18.413 16.4945 18.965 16.697 19.6471C16.8391 20.1272 16.8194 20.6209 16.6683 21.0981Z" fill="#403E3B"/>
<path d="M18.9629 0.263647C18.6379 -0.0504844 18.2615 -0.0504844 17.873 0.140986C17.3636 0.392292 16.8588 0.652572 16.3478 0.902382C15.908 1.11629 15.4454 1.51718 15.0267 1.47829C14.5672 1.43641 14.2875 0.835068 13.9066 0.499994C13.8341 0.435672 13.7706 0.359383 13.6965 0.29506C13.2415 -0.0953603 12.8273 -0.10284 12.3829 0.299548C12.0353 0.61368 11.6967 0.944266 11.3808 1.29131C11.1767 1.51868 11.0029 1.5471 10.7277 1.4035C9.92963 0.984654 9.11186 0.604705 8.3092 0.193342C7.88747 -0.022063 7.48388 -0.0923686 7.11505 0.265143C6.74773 0.621159 6.7961 1.03103 7.01226 1.44538C7.86026 3.07587 8.34548 4.80958 8.50722 6.63005C8.53745 6.95914 8.64024 7.03842 8.9607 7.03393C10.3 7.01598 11.6407 7.02645 12.98 7.02645C14.3586 7.02645 15.7387 7.02795 17.1172 7.02496C17.3183 7.02496 17.5314 7.09975 17.5586 6.74374C17.7113 4.841 18.2343 3.03848 19.1125 1.33618C19.309 0.956233 19.2879 0.576283 18.9629 0.263647ZM14.3692 4.27705C14.2951 4.35185 14.2029 4.38924 14.0925 4.38924C14.0684 4.38924 14.0321 4.38476 13.9852 4.37877C13.9384 4.37129 13.9006 4.3683 13.8749 4.3683C13.8205 4.3683 13.7403 4.3698 13.636 4.37279C13.5302 4.37578 13.4486 4.37728 13.3927 4.37728C13.3942 4.44309 13.3942 4.52985 13.3927 4.63606C13.3912 4.77219 13.3897 4.85745 13.3897 4.89185C13.3897 4.99058 13.3534 5.07285 13.2808 5.13718C13.2068 5.20299 13.1161 5.2359 13.0087 5.2359C12.8999 5.2359 12.8092 5.20299 12.7366 5.13568C12.6641 5.06986 12.6263 4.98609 12.6263 4.88587C12.6263 4.86194 12.6248 4.69141 12.6203 4.37728C12.4721 4.38476 12.3406 4.38924 12.2288 4.38924C12.0882 4.38924 11.9627 4.36381 11.8524 4.31146C11.7148 4.24714 11.6468 4.15439 11.6468 4.03323C11.6468 3.87915 11.7103 3.77893 11.8373 3.73256C11.9068 3.70563 12.0383 3.69367 12.2288 3.69367C12.3436 3.69367 12.4736 3.68918 12.6203 3.6817C12.6203 3.66225 12.6203 3.62186 12.6187 3.56353C12.6157 3.50369 12.6157 3.45582 12.6157 3.41843C12.6157 3.02352 12.7503 2.82606 13.0193 2.82606C13.1251 2.82606 13.2158 2.85897 13.2944 2.9218C13.3715 2.98612 13.4108 3.06839 13.4108 3.16712C13.4108 3.19853 13.4063 3.2464 13.4002 3.31372C13.3927 3.37953 13.3897 3.4289 13.3897 3.46181L13.3927 3.66973C13.438 3.67123 13.4728 3.67272 13.497 3.67272C13.5378 3.67272 13.5967 3.67123 13.6784 3.66674C13.7585 3.66225 13.8205 3.66076 13.8628 3.66076C14.2694 3.66076 14.472 3.78192 14.472 4.02575C14.472 4.12298 14.4387 4.20675 14.3692 4.27705Z" fill="#403E3B"/>
<path d="M3.2741 9.73098C3.26654 10.2306 2.86144 10.6061 2.35657 10.5836C1.87739 10.5612 1.51612 10.1812 1.52368 9.70405C1.53124 9.20444 1.93635 8.82897 2.44273 8.85291C2.9219 8.87534 3.28166 9.2538 3.2741 9.73098Z" fill="#403E3B"/>
<path d="M4.15082 4.33988C4.11001 4.33988 4.04955 4.3339 3.96943 4.32193C3.88932 4.30996 3.82734 4.30398 3.782 4.30398C3.68979 4.30398 3.55375 4.30697 3.37538 4.31146C3.1955 4.31595 3.05946 4.31894 2.96271 4.31894C2.96574 4.43113 2.96574 4.57772 2.96271 4.75872C2.95969 4.98909 2.95818 5.13418 2.95818 5.19252C2.95818 5.36006 2.8962 5.49918 2.77225 5.60987C2.6483 5.72056 2.49412 5.77591 2.31122 5.77591C2.12832 5.77591 1.97414 5.72056 1.85018 5.60837C1.72623 5.49618 1.66426 5.35408 1.66426 5.18355C1.66426 5.22693 1.66124 4.93972 1.65368 4.32043C1.39973 4.3339 1.17904 4.33988 0.988579 4.33988C0.748236 4.33988 0.535102 4.2965 0.349177 4.20974C0.116392 4.09905 0 3.94198 0 3.73705C0 3.47527 0.108834 3.30474 0.324992 3.22546C0.442896 3.18208 0.665099 3.15964 0.990091 3.15964C1.18357 3.15964 1.40427 3.15366 1.65519 3.1402C1.65519 3.10729 1.65368 3.03997 1.65066 2.93975C1.64763 2.83953 1.64612 2.75725 1.64612 2.69293C1.64612 2.02278 1.87437 1.68921 2.33087 1.68921C2.51075 1.68921 2.66644 1.74306 2.79795 1.85226C2.92946 1.96145 2.99597 2.09907 2.99597 2.26661C2.99597 2.32046 2.98992 2.40273 2.97783 2.51492C2.96574 2.62711 2.95969 2.71238 2.95969 2.76922L2.96423 3.12075C3.04132 3.12374 3.10178 3.12524 3.14259 3.12524C3.21061 3.12524 3.31189 3.12225 3.44945 3.11477C3.587 3.10878 3.68979 3.1043 3.76083 3.1043C4.45163 3.1043 4.79627 3.31072 4.79627 3.72508C4.79627 3.88962 4.73883 4.03173 4.62244 4.1514C4.49547 4.27705 4.33826 4.33988 4.15082 4.33988Z" fill="#403E3B"/>
<path d="M26.2911 9.31064C26.2457 9.31064 26.1792 9.30466 26.09 9.29119C26.0024 9.27773 25.9328 9.27175 25.8844 9.27175C25.7832 9.27175 25.6335 9.27474 25.4355 9.28072C25.2375 9.28671 25.0863 9.2897 24.9805 9.2897C24.9835 9.41385 24.9835 9.57541 24.9805 9.77436C24.9775 10.0287 24.9745 10.1887 24.9745 10.253C24.9745 10.4385 24.9064 10.5911 24.7704 10.7138C24.6344 10.8349 24.4636 10.8963 24.261 10.8963C24.0584 10.8963 23.8892 10.8349 23.7516 10.7108C23.6156 10.5866 23.546 10.431 23.546 10.2426C23.546 10.2904 23.543 9.97331 23.5354 9.2897C23.2558 9.30466 23.0109 9.31214 22.8023 9.31214C22.5378 9.31214 22.302 9.26427 22.0964 9.16853C21.8394 9.04737 21.7094 8.87235 21.7094 8.64797C21.7094 8.35927 21.8289 8.17079 22.0677 8.08253C22.1977 8.03467 22.4426 8.01073 22.8008 8.01073C23.0139 8.01073 23.2573 8.00325 23.5339 7.9883C23.5339 7.9509 23.5324 7.8776 23.5279 7.76691C23.5249 7.65621 23.5218 7.56497 23.5218 7.49466C23.5218 6.7557 23.7743 6.38622 24.2776 6.38622C24.4756 6.38622 24.6465 6.44606 24.7931 6.56573C24.9382 6.6854 25.0107 6.83798 25.0107 7.02346C25.0107 7.0833 25.0047 7.17454 24.9911 7.29721C24.9775 7.42136 24.9714 7.51411 24.9714 7.57693L24.9775 7.96436C25.0637 7.96885 25.1287 7.97035 25.174 7.97035C25.2481 7.97035 25.3614 7.96735 25.5126 7.95987C25.6638 7.95239 25.7786 7.9494 25.8572 7.9494C26.6191 7.9494 27 8.17677 27 8.63301C27 8.81401 26.9365 8.97108 26.808 9.10271C26.6705 9.24183 26.4966 9.31064 26.2911 9.31064Z" fill="#403E3B"/>
</g>
</svg>
