<svg width="32" height="32" viewBox="0 0 32 32" fill="none" xmlns="http://www.w3.org/2000/svg">
<g id="Vector">
<path d="M31.9997 17.1164C31.9973 19.4678 31.9794 21.4664 31.8458 23.1062C31.6907 25.0093 31.373 26.5993 30.6618 27.92C30.3482 28.5024 29.9627 29.0242 29.4934 29.4934C28.1616 30.8251 26.4648 31.4285 24.3146 31.7176C22.2136 32 19.5211 32 16.0854 32H15.9146C12.4789 32 9.78634 32 7.68552 31.7176C5.53522 31.4285 3.83843 30.8251 2.50662 29.4934C1.32594 28.3126 0.716208 26.8432 0.391968 25.0201C0.0734564 23.2294 0.0151842 21.0014 0.00307222 18.2347C2.16663e-07 17.531 2.40815e-07 16.7867 2.40815e-07 16.0014V15.9145C-1.57592e-05 12.4788 -3.16048e-05 9.78629 0.282416 7.68547C0.57152 5.53516 1.17482 3.83837 2.50662 2.50656C3.83843 1.17475 5.53522 0.57145 7.68552 0.282346C9.55378 0.0311612 11.9575 0.00336915 14.8832 0.000313145C15.4997 -0.000342856 16 0.499706 16 1.1162C16 1.73272 15.4995 2.23225 14.883 2.23291C11.916 2.23605 9.70802 2.26307 7.98299 2.49499C6.08026 2.75082 4.93314 3.23736 4.08528 4.08522C3.23742 4.93308 2.75088 6.0802 2.49506 7.98294C2.23493 9.91781 2.23256 12.4603 2.23256 16C2.23256 16.4323 2.23256 16.8502 2.23307 17.255L3.72314 15.9513C5.07944 14.7644 7.1236 14.8326 8.39795 16.1068L14.7827 22.4917C15.8056 23.5145 17.4157 23.6539 18.5992 22.8222L19.043 22.5102C20.7461 21.3134 23.0502 21.4521 24.5974 22.8446L28.8102 26.6362C29.2342 25.7456 29.4861 24.5755 29.6205 22.9249C29.7472 21.3697 29.7646 19.4808 29.767 17.1166C29.7677 16.5001 30.2672 16 30.8837 16C31.5002 16 32.0003 16.5 31.9997 17.1164Z" fill="#A5A6A4"/>
<path fill-rule="evenodd" clip-rule="evenodd" d="M24.8 14.4C21.4059 14.4 19.7088 14.4 18.6544 13.3456C17.6 12.2912 17.6 10.5941 17.6 7.20002C17.6 3.8059 17.6 2.10884 18.6544 1.05442C19.7088 -7.62941e-08 21.4059 0 24.8 0C28.1941 0 29.8912 -7.62941e-08 30.9456 1.05442C32 2.10884 32 3.8059 32 7.20002C32 10.5941 32 12.2912 30.9456 13.3456C29.8912 14.4 28.1941 14.4 24.8 14.4ZM26 4.00001C26 3.33727 25.4627 2.80001 24.8 2.80001C24.1373 2.80001 23.6 3.33727 23.6 4.00001V6.00001H21.6C20.9373 6.00001 20.4 6.53728 20.4 7.20002C20.4 7.86275 20.9373 8.40002 21.6 8.40002H23.6V10.4C23.6 11.0628 24.1373 11.6 24.8 11.6C25.4627 11.6 26 11.0628 26 10.4V8.40002H28C28.6627 8.40002 29.2 7.86275 29.2 7.20002C29.2 6.53728 28.6627 6.00001 28 6.00001H26V4.00001Z" fill="#A5A6A4"/>
</g>
</svg>
